<?xml version="1.0" encoding="UTF-8"?>
<svg width="470px" height="946px" viewBox="0 0 470 946" version="1.1" xmlns="http://www.w3.org/2000/svg" xmlns:xlink="http://www.w3.org/1999/xlink">
    <!-- Generator: Sketch 54.1 (76490) - https://sketchapp.com -->
    <title>iPhone XR-XSmax</title>
    <desc>Created with Sketch.</desc>
    <g id="iPhone-XR-XSmax" stroke="none" stroke-width="1" fill="none" fill-rule="evenodd">
        <path d="M64,0 L406,7.10542736e-15 C440.241654,8.15337472e-16 468,27.7583455 468,62 L468,884 C468,918.241654 440.241654,946 406,946 L64,946 C29.7583455,946 2,918.241654 2,884 L2,62 C2,27.7583455 29.7583455,6.29008989e-15 64,0 Z M66,7 C34.5197693,7 9,32.5197693 9,64 L9,882 C9,913.480231 34.5197693,939 66,939 L404,939 C435.480231,939 461,913.480231 461,882 L461,64 C461,32.5197693 435.480231,7 404,7 L66,7 Z" id="outer-frame" fill="#666666"></path>
        <path d="M66,7 L404,7 C435.480231,7 461,32.5197693 461,64 L461,883 C461,914.480231 435.480231,940 404,940 L66,940 C34.5197693,940 9,914.480231 9,883 L9,64 C9,32.5197693 34.5197693,7 66,7 Z M68,25 C45.90861,25 28,42.90861 28,65 L28,881 C28,903.09139 45.90861,921 68,921 L402,921 C424.09139,921 442,903.09139 442,881 L442,65 C442,42.90861 424.09139,25 402,25 L68,25 Z M154.039054,56 C141.336505,56 131.039054,45.7025492 131.039088,32.9609787 L131.045744,29.0374188 C131.033048,28.9860004 131.019265,28.9401942 131.004395,28.9000001 C130.333298,27.0860849 128.77962,25.6739597 126.891833,25.216238 L126,25 L345,25 L344.108167,25.216238 C342.211271,25.6761683 340.667785,27.0730117 340.001801,28.9000001 C339.970341,28.9863015 339.954323,29.0774678 339.954479,29.1693241 C339.95879,31.7145826 339.960946,32.9914746 339.960946,33 C339.960946,45.7025492 329.663495,56 316.960946,56 L154.039054,56 Z" id="inner-frame" fill="#000000"></path>
        <g id="Buttons" transform="translate(0.000000, 127.000000)" fill="#333333">
            <path d="M2,155 L2,155 L2,223 L2,223 C0.8954305,223 1.3527075e-16,222.104569 0,221 L0,157 C-1.3527075e-16,155.895431 0.8954305,155 2,155 Z" id="Rectangle"></path>
            <path d="M2,68 L2,68 L2,136 L2,136 C0.8954305,136 1.3527075e-16,135.104569 0,134 L0,70 C-1.3527075e-16,68.8954305 0.8954305,68 2,68 Z" id="Rectangle"></path>
            <path d="M2,0 L2,0 L2,36 L2,36 C0.8954305,36 1.3527075e-16,35.1045695 0,34 L0,2 C-1.3527075e-16,0.8954305 0.8954305,2.02906125e-16 2,0 Z" id="Rectangle"></path>
            <path d="M468,91 L468,91 C469.104569,91 470,91.8954305 470,93 L470,198 C470,199.104569 469.104569,200 468,200 L468,200 L468,91 Z" id="Rectangle"></path>
        </g>
        <g id="Details" transform="translate(210.000000, 32.000000)" fill="#181818">
            <circle id="Camera" cx="70.5" cy="5.5" r="5.5"></circle>
            <rect id="Microphone" x="0" y="2" width="50" height="6" rx="3"></rect>
        </g>
    </g>
</svg>